<svg xmlns="http://www.w3.org/2000/svg" viewBox="0 0 512 512" id="power-crane">
  <path fill="#18171c" d="M512 98.69v-.73c0-.12 0-.24-.05-.36l-.06-.36c0-.1 0-.2-.07-.3s-.07-.27-.11-.4l-.09-.26c-.05-.14-.1-.27-.16-.4s-.07-.17-.1-.25-.13-.25-.2-.38-.16-.17-.16-.25l-.21-.34-.18-.26c-.07-.09-.14-.19-.22-.28l-.21-.27-.23-.24-.26-.27-.24-.21a4.16 4.16 0 0 0-.39-.32 4.6 4.6 0 0 0-.45-.32 1.32 1.32 0 0 0-.2-.12l-.43-.25-.21-.1-.46-.21h-.08L271.82.51a2.13 2.13 0 0 0-.33-.11l-.24-.08a6.48 6.48 0 0 0-1-.22h-.12a7.57 7.57 0 0 0-.94-.07h-26.38a6.46 6.46 0 0 0-1 .07h-.11a8.52 8.52 0 0 0-1 .23l-.23.07-.35.12L6.17 91.78H6.1l-.49.22-.18.09c-.16.08-.32.18-.48.28l-.15.08-.55.4-.3.26-.23.2-.27.28-.21.23-.24.31-.21.27-.18.28a3.45 3.45 0 0 0-.2.32l-.15.26-.18.37c0 .09-.08.17-.11.26s-.11.26-.16.39l-.09.27c0 .13-.07.26-.1.39s0 .21-.08.31l-.06.35c0 .12 0 .25-.05.37s0 .2 0 .3V135a7.5 7.5 0 0 0 7.5 7.5H31v38A15.51 15.51 0 0 0 46.5 196h27A15.51 15.51 0 0 0 89 180.5v-38h94.54a15.51 15.51 0 0 0 14.46 9.84h17.43V462H176.5a22.52 22.52 0 0 0-22.5 22.5v12.61H48.89a7.5 7.5 0 1 0 0 15L464.5 512a7.5 7.5 0 0 0 0-15H358v-12.5a22.52 22.52 0 0 0-22.5-22.5h-38.89V152.34H314a15.51 15.51 0 0 0 14.42-9.86H419V311h-.69a7.5 7.5 0 0 0-7.5 7.5v29a7.49 7.49 0 0 0 4.53 6.88l18.66 8v17.1a7.5 7.5 0 0 0 7.5 7.5h.5a6 6 0 1 1-4.7 9.73 7.5 7.5 0 0 0-11.74 9.34A21 21 0 1 0 449 373.23V362.4l18.66-8a7.49 7.49 0 0 0 4.53-6.88v-29a7.5 7.5 0 0 0-7.5-7.5H464V142.48h41.39l.37-.06.36-.07.34-.08.36-.11a3.4 3.4 0 0 0 .34-.12l.34-.13.34-.17.31-.15.33-.21.29-.18.3-.23.29-.23.25-.23.3-.29.09-.09.13-.15a4 4 0 0 0 .26-.32l.21-.27.22-.32.18-.31.18-.32.16-.33c.05-.11.09-.23.14-.34l.12-.34c0-.12.08-.23.11-.35s.07-.24.09-.36.05-.23.07-.35a2.71 2.71 0 0 0 .06-.38V98.69ZM248 15h16l14.16 36.42h-44.57ZM16.39 127.48v-9.32l13.5 9.32Zm6.79-22.86L79.08 98 53 125.18ZM74 180.5a.5.5 0 0 1-.5.5h-27a.5.5 0 0 1-.5-.5v-38h28Zm-2.47-53L99 98.85l27.47 28.63Zm43.3-33.8 57.93-6.92-29.24 36.83Zm67.63 33.8h-22.88l22.88-28.81Zm0-60.56v3.56L66.55 84.33l163-63.59-12.09 30.68H198a15.51 15.51 0 0 0-15.54 15.5ZM335.5 477a7.5 7.5 0 0 1 7.5 7.5V497l-174 .06V484.5a7.5 7.5 0 0 1 7.5-7.5ZM230.39 180.39v-28h20.74Zm39.39-28h11.83V239l-45.53-41.06Zm5 100.71-44.39 40V213Zm6.81 14.06v80.1l-44.41-40Zm-6.81 94.16-44.41 40.05v-80.1Zm6.81 14.06V462h-11.81l-33.7-45.6ZM251.13 462h-20.74v-28Zm63.41-385.84v60.68a.5.5 0 0 1-.5.5H198a.5.5 0 0 1-.5-.5V66.92a.5.5 0 0 1 .5-.5h116a.5.5 0 0 1 .5.5ZM314 51.42h-19.8l-12-30.77L445.62 84 329.54 69.73v-2.81A15.51 15.51 0 0 0 314 51.42Zm15.5 33.43 24.62 3-24.62 27.49Zm9.28 42.63 30.37-33.91 28.93 33.91Zm76.22-3.31L387.54 92l54.95 6.74Zm42.18 218.36-15.68 6.77-15.69-6.77V326h31.38ZM434 311V142.48h15V311Zm-.49-183.52 25.93-24 25.93 24Zm63.49-9.67-15.44-14.3 15.44 1.9Z"></path>
</svg>
