<?xml version="1.0" standalone="no"?>
<!DOCTYPE svg PUBLIC "-//W3C//DTD SVG 20010904//EN"
 "http://www.w3.org/TR/2001/REC-SVG-20010904/DTD/svg10.dtd">
<svg version="1.0" xmlns="http://www.w3.org/2000/svg"
 width="1024.000000pt" height="1026.000000pt" viewBox="0 0 1024.000000 1026.000000"
 preserveAspectRatio="xMidYMid meet">

<g transform="translate(0.000000,1026.000000) scale(0.100000,-0.100000)"
fill="#000000" stroke="none">
<path d="M2870 10033 c-327 -399 -712 -836 -1027 -1167 -390 -409 -1106 -1059
-1706 -1551 -91 -74 -97 -81 -92 -110 12 -74 56 -661 87 -1155 20 -318 17
-1400 -5 -1765 -23 -386 -42 -643 -73 -978 -14 -154 -24 -280 -22 -281 15 -9
399 -331 538 -451 808 -694 1322 -1217 2169 -2205 130 -151 248 -289 262 -307
l26 -31 189 18 c497 49 1068 85 1631 101 601 18 1193 -5 2078 -81 127 -11 242
-22 257 -25 24 -4 46 18 235 233 593 676 1118 1238 1486 1590 322 310 744 686
1121 1001 l198 166 -6 60 c-37 375 -68 770 -93 1195 -22 369 -25 1418 -5 1750
18 313 50 753 72 1000 l19 215 -32 25 c-87 68 -467 389 -662 560 -384 336
-641 575 -965 900 -420 419 -773 806 -1155 1265 -87 105 -161 194 -165 198 -4
5 -108 -1 -231 -12 -543 -51 -923 -75 -1424 -92 -581 -19 -1391 13 -2260 91
-121 11 -236 23 -255 26 l-36 5 -154 -188z m1152 -2410 c541 -1303 983 -2370
982 -2372 -4 -4 -4756 1949 -4768 1960 -6 5 3 18 20 31 69 53 453 378 614 518
356 310 593 532 925 864 415 416 767 802 1113 1223 64 78 120 143 123 143 3 0
449 -1065 991 -2367z m3345 2182 c629 -754 1254 -1392 2003 -2045 161 -140
545 -465 614 -518 17 -13 26 -26 20 -31 -12 -11 -4764 -1964 -4768 -1960 -5 7
1967 4740 1974 4737 4 -2 74 -84 157 -183z m-3352 -7182 c-538 -1308 -981
-2382 -986 -2387 -5 -6 -18 3 -31 20 -53 69 -378 453 -518 614 -309 354 -532
593 -859 920 -419 419 -729 702 -1186 1083 -99 83 -181 153 -183 157 -3 7
4730 1979 4737 1974 2 -2 -437 -1073 -974 -2381z m3808 1315 c1192 -496 2166
-904 2165 -908 -2 -4 -84 -74 -183 -157 -754 -629 -1392 -1254 -2045 -2003
-140 -161 -465 -545 -518 -614 -13 -17 -26 -26 -31 -20 -9 9 -1961 4754 -1961
4766 0 3 91 -32 203 -78 111 -47 1178 -490 2370 -986z"/>
</g>
</svg>
